<?xml version="1.0" encoding="utf-8"?>
<!-- Generator: Adobe Illustrator 19.2.1, SVG Export Plug-In . SVG Version: 6.00 Build 0)  -->
<svg version="1.1" id="Layer_1" xmlns:sketch="http://www.bohemiancoding.com/sketch/ns"
	 xmlns="http://www.w3.org/2000/svg" xmlns:xlink="http://www.w3.org/1999/xlink" x="0px" y="0px" viewBox="0 0 100 125"
	 style="enable-background:new 0 0 100 125;" fill="#fff" xml:space="preserve">
<title>Building</title>
<description>Created with Sketch (http://www.bohemiancoding.com/sketch)</description>
<g sketch:type="MSPage">
	<g transform="translate(-1.000000, 1.000000)" sketch:type="MSArtboardGroup">
		<path sketch:type="MSShapeGroup" d="M31,73.9v-7.9l0,0l-22.6-4v-4.2l22.6,4v-9.1l-22.7-4v-4.2l22.7,4l0,0v-7.9l-22.7-4v-4.2
			l22.7,4v-7L5,25v61l26,3.7V78.1l-22.6-4v-4.2L31,73.9z M90,12.1v74.4L70.7,97V22L90,12.1z M31.6,16.6l38.7,5.3v74.9l-38.4-5.4
			L31.6,16.6z M31.5,16l17-9l41.2,4.6l-19.1,9.8L31.5,16z M36.8,29.9l10.1,1.2v-6.4l-10.1-1.2V29.9z M54.5,32.5l10.1,1.2v-6.4
			l-10.1-1.2V32.5z M36.5,43.7l10.1,1.2v-6.4l-10.1-1.2V43.7z M54.3,46.4l10.1,1.2v-6.4l-10.1-1.2V46.4z M36.7,57.5l10.1,1.2v-6.4
			l-10.1-1.2V57.5z M54.4,60.2l10.1,1.2V55l-10.1-1.2V60.2z M36.7,71.4l10.1,1.2v-6.4L36.7,65V71.4z M54.4,74.1l10.1,1.2v-6.4
			l-10.1-1.2V74.1z M5.5,24.6l14.2-8l11.4,1.8v10.2"/>
	</g>
</g>
</svg>
