<?xml version="1.0" encoding="utf-8"?>
<!-- Generator: Adobe Illustrator 19.2.1, SVG Export Plug-In . SVG Version: 6.00 Build 0)  -->
<svg version="1.1" id="Layer_1" xmlns="http://www.w3.org/2000/svg" fill="#fff" xmlns:xlink="http://www.w3.org/1999/xlink" x="0px" y="0px"
	 viewBox="0 0 425.2 531.5" style="enable-background:new 0 0 425.2 531.5;" xml:space="preserve">
<path d="M162.3,273.5l12.1-0.5l33.6-1.5l-52.6,54.8L220,270l7.1-6.2l-9.7-0.4l-30.4-1.4l25.8-27.1c-6.3-1.3-12-3.4-16.5-6.1
	L162.3,273.5z"/>
<path d="M82.5,198.3l-24.7,32.5l12.1-0.5l33.6-1.5l-52.6,54.8l64.6-56.2l7.1-6.2l-9.7-0.4l-30.4-1.4l19.3-20.2
	c-2.4,0.3-4.8,0.5-7.3,0.5C90.2,199.6,86.2,199.1,82.5,198.3z"/>
<path d="M300.2,231.6l-27.3,36l12.1-0.5l33.6-1.5l-52.6,54.8l64.6-56.2l7.1-6.2l-9.7-0.4l-30.4-1.4l25.8-27.1
	c-0.2,0-0.5-0.1-0.7-0.2c-6.1,1.8-13,2.8-20.3,2.8C301.6,231.7,300.9,231.7,300.2,231.6z"/>
<g>
	<path d="M166.1,153.8c0-9.2,7.6-17.1,18.4-20.5c-3.2-0.9-6.8-1.5-10.6-1.5c-1.6,0-3.2,0.1-4.8,0.3c0-0.1,0-0.2,0-0.3
		c0-7.1-10.2-12.8-22.9-12.8c0,0-0.1,0-0.1,0c0-0.4,0.1-0.8,0.1-1.2c0-10-14.5-18.1-32.4-18.1c-17.9,0-32.4,8.1-32.4,18.1
		c0,1.8,0.5,3.5,1.4,5.2c-1-0.1-1.9-0.1-2.9-0.1c-12.3,0-22.3,7.3-22.3,16.3c0,2.4,0.7,4.6,1.9,6.6c-11.3,1.8-19.7,9.9-19.7,19.5
		c0,11,11,19.9,24.6,19.9c2.6,0,5.2-0.3,7.6-1c3.6,3.6,9.4,6.5,16.4,8c3.7,0.8,7.7,1.3,11.9,1.3c2.5,0,5-0.2,7.3-0.5
		c10.5-1.4,19-5.6,22.8-11.1c3,2.1,6.9,3.8,11.3,5c1.4-12,12.5-21.8,26.9-24.1C167.1,160.1,166.1,157.1,166.1,153.8z"/>
	<path d="M357.5,176.1c4.4-3,7-6.8,7-11c0-9.7-14-17.5-31.3-17.5c-2.2,0-4.4,0.1-6.6,0.4c0-0.1,0-0.3,0-0.4c0-9.7-14-17.5-31.3-17.5
		c0,0-0.1,0-0.1,0c0.1-0.6,0.1-1.1,0.1-1.7c0-13.7-19.8-24.8-44.3-24.8c-24.5,0-44.3,11.1-44.3,24.8c0,2.5,0.7,4.9,1.9,7.1
		c-1.3-0.1-2.6-0.2-4-0.2c-4.3,0-8.4,0.7-12.1,1.8c-10.8,3.4-18.4,11.3-18.4,20.5c0,3.2,0.9,6.3,2.6,9.1
		c-14.4,2.4-25.5,12.1-26.9,24.2c-0.1,0.8-0.1,1.7-0.1,2.5c0,15,15.1,27.2,33.7,27.2c3.6,0,7.1-0.5,10.4-1.3
		c1.8,1.9,4.1,3.6,6.7,5.1c4.6,2.7,10.2,4.8,16.5,6.1c4.8,1,10,1.6,15.5,1.6c18.8,0,34.9-6.6,41.3-15.8c7.7,5.4,19.3,8.9,32.4,9.2
		c0.7,0,1.4,0,2.1,0c7.3,0,14.2-1,20.3-2.8c9-2.6,16.3-6.9,20.3-12.2c1.9,0.2,3.9,0.3,5.9,0.3c17.3,0,31.3-7.8,31.3-17.5
		C386.2,184.4,373.6,176.9,357.5,176.1z"/>
</g>
</svg>
