<?xml version="1.0" encoding="utf-8"?>
<!-- Generator: Adobe Illustrator 19.2.1, SVG Export Plug-In . SVG Version: 6.00 Build 0)  -->
<svg version="1.1" id="Layer_1" xmlns="http://www.w3.org/2000/svg" xmlns:xlink="http://www.w3.org/1999/xlink" x="0px" y="0px"
	 viewBox="0 0 60.6 125" style="enable-background:new 0 0 60.6 125;" fill="#fff" xml:space="preserve">
<path d="M30.3,0L30.3,0C30.3,0,30.3,0,30.3,0L30.3,0L30.3,0C30.3,0,30.3,0,30.3,0L30.3,0L30.3,0L30.3,0L30.3,0L30.3,0L30.3,0L30.3,0
	L30.3,0L30.3,0L30.3,0C30.3,0,30.3,0,30.3,0L30.3,0L30.3,0L30.3,0z M30.3,0L30.3,0L30.3,0L30.3,0L30.3,0L30.3,0
	C30.3,0,30.3,0,30.3,0C30.3,0,30.3,0,30.3,0L30.3,0L30.3,0C30.3,0,30.3,0,30.3,0z M30.3,0L30.3,0L30.3,0L30.3,0L30.3,0L30.3,0
	L30.3,0z M30.3,0L30.3,0L30.3,0L30.3,0L30.3,0z M30.3,0C30.3,0,30.3,0,30.3,0L30.3,0L30.3,0C30.3,0,30.3,0,30.3,0z"/>
<g>
	<path d="M30.3,0c6.5,23.8,15.5,32.2,26.8,55.2c11,22.3-5.3,44.8-26.8,44.8C8.8,100-7.4,77.6,3.5,55.2C14.8,32.2,23.8,23.8,30.3,0z"
		/>
</g>
</svg>
